PathFileType	4	(X/Y/Z)	C:\Users\xlb\Desktop\20210112\20210112\bx_n_10_901.trc
DataRate	CameraRate	NumFrames	NumMarkers	Units	OrigDataRate	OrigDataStartFrame	OrigNumFrames
50.00	50.00	       5	43	mm	50.00	389	       518
Frame#	Time	Top.Head			R.Acromium			L.Acromium			Sternum			R.ASIS			L.ASIS			V.Sacral			R.Thigh.Upper			R.Thigh.Front			R.Thigh.Rear			R.Knee.Lat			R.Knee.Med			R.Shank.Upper			R.Shank.Front			R.Shank.Rear			R.Ankle.Lat			R.Midfoot.Lat			R.Toe.Lat			R.Toe.Tip			R.Toe.Med			R.Ankle.Med			R.Midfoot.Sup			R.Heel			L.Thigh.Upper			L.Thigh.Front			L.Thigh.Rear			L.Knee.Lat			L.Knee.Med			L.Shank.Upper			L.Shank.Front			L.Shank.Rear			L.Ankle.Lat			L.Midfoot.Lat			L.Toe.Lat			L.Toe.Tip			L.Toe.Med			L.Ankle.Med			L.Midfoot.Sup			L.Heel			origin1 front left			origin2 front right			origin 3 back right			origin 4 back leftt			
		X1	Y1	Z1	X2	Y2	Z2	X3	Y3	Z3	X4	Y4	Z4	X5	Y5	Z5	X6	Y6	Z6	X7	Y7	Z7	X8	Y8	Z8	X9	Y9	Z9	X10	Y10	Z10	X11	Y11	Z11	X12	Y12	Z12	X13	Y13	Z13	X14	Y14	Z14	X15	Y15	Z15	X16	Y16	Z16	X17	Y17	Z17	X18	Y18	Z18	X19	Y19	Z19	X20	Y20	Z20	X21	Y21	Z21	X22	Y22	Z22	X23	Y23	Z23	X24	Y24	Z24	X25	Y25	Z25	X26	Y26	Z26	X27	Y27	Z27	X28	Y28	Z28	X29	Y29	Z29	X30	Y30	Z30	X31	Y31	Z31	X32	Y32	Z32	X33	Y33	Z33	X34	Y34	Z34	X35	Y35	Z35	X36	Y36	Z36	X37	Y37	Z37	X38	Y38	Z38	X39	Y39	Z39	X40	Y40	Z40	X41	Y41	Z41	X42	Y42	Z42	X43	Y43	Z43	

389	7.760	-708.68884	90.60563	1847.06226	-654.05072	-82.35219	1551.63904	-667.95367	273.02823	1543.54114	-572.30182	91.10790	1355.23828	-579.83398	-17.74877	1055.04541	-601.98145	229.88921	1067.74841	-789.29620	74.23848	1057.78503	-648.37238	-84.45406	873.32678	-577.98853	-13.79954	804.21704	-673.77271	-69.81647	759.31177	-699.80145	-43.90923	618.68451	-684.26208	65.63490	575.77448	-708.51508	-40.22943	569.28857	-657.19391	9.19578	519.78888	-754.21204	-49.71931	489.10373	-757.53027	-19.09807	206.38161	-649.23169	-68.99951	160.35628	-607.38080	-77.54193	156.07719	-547.95148	-29.80184	162.87488	-595.91919	24.18560	169.56502	-669.81873	52.73682	161.35420	-714.08710	69.03497	218.77063	-789.86761	41.14238	173.26862	-688.90326	270.30695	877.75000	-583.37701	208.83501	815.94836	-696.93372	260.46356	747.17993	-725.62555	242.71130	644.84808	-685.85010	138.93187	575.29053	-727.86011	240.39725	578.05835	-672.95465	202.09818	535.41492	-767.49457	251.31267	504.77155	-766.64099	227.24799	205.97285	-658.53400	297.70898	158.74124	-622.36969	306.21204	158.80705	-554.53711	255.88560	164.61592	-590.43512	218.99400	173.54785	-710.67590	153.34492	216.94131	-673.68744	173.62917	159.04573	-794.51563	178.54285	183.37723	-527.96179	304.25638	146.55324	-517.70648	-72.88503	142.94170	-875.93738	-78.85833	141.36771	-882.49316	296.17273	144.70975	
390	7.780	-712.81451	90.61887	1846.75183	-657.18542	-82.54994	1551.15051	-670.37659	273.04285	1543.24084	-572.71930	91.13203	1355.57715	-577.11017	-17.45533	1054.70020	-599.16931	230.31892	1067.54041	-786.55939	74.53409	1057.47961	-646.02863	-84.24044	873.07532	-576.23334	-13.35671	803.72266	-671.96362	-69.75227	759.19464	-698.75085	-43.84433	618.72150	-683.49347	65.66922	575.72290	-707.79968	-40.16169	569.32672	-656.65637	9.20252	519.63275	-753.81708	-49.58270	489.26105	-757.58734	-19.01648	206.37250	-649.30487	-69.08189	160.29852	-607.37988	-77.53973	156.06810	-547.87311	-29.83243	162.83711	-595.90765	24.16384	169.57372	-669.82343	52.71519	161.35931	-714.05804	69.03335	218.73053	-789.77246	41.14024	173.30975	-686.48273	270.65018	877.51172	-581.16278	208.96046	815.49500	-694.91882	260.68332	747.04602	-724.01270	242.86185	644.81982	-684.62982	138.98410	575.25494	-726.49915	240.50026	578.03479	-671.78424	202.14325	535.28302	-766.43085	251.39807	504.89050	-766.58478	227.17853	206.06017	-658.51062	297.67587	158.78751	-622.36951	306.21323	158.79903	-554.51538	255.96068	164.59453	-590.39807	218.93184	173.50729	-710.59802	153.18277	216.87965	-673.73682	173.55998	158.90804	-794.45142	178.42577	183.40160	-527.97064	304.26559	146.54556	-517.68353	-72.87014	142.94882	-875.94073	-78.87183	141.35442	-882.49213	296.16354	144.69685	
391	7.800	-716.60846	90.62333	1846.35156	-660.05762	-82.73435	1550.55933	-672.59222	273.09390	1542.87305	-573.01880	91.17200	1355.86340	-574.55096	-17.16753	1054.36707	-596.50940	230.74434	1067.33313	-783.99133	74.88734	1057.22107	-643.91046	-84.01103	872.83453	-574.62250	-12.96727	803.22565	-670.35815	-69.69406	759.09552	-697.84540	-43.79089	618.76996	-682.89551	65.70801	575.69360	-707.23914	-40.07614	569.34778	-656.23236	9.20824	519.51190	-753.51483	-49.44187	489.42355	-757.65826	-18.95319	206.38394	-649.37207	-69.16653	160.24248	-607.38727	-77.53662	156.05872	-547.82397	-29.86432	162.81436	-595.90295	24.14770	169.58328	-669.82373	52.68819	161.36411	-714.04633	69.02585	218.69931	-789.66241	41.13092	173.32332	-684.18347	271.03699	877.28320	-579.08606	209.11035	815.04138	-693.02600	260.92218	746.89038	-722.50922	243.04504	644.79248	-683.55475	139.05850	575.22394	-725.23541	240.65015	578.00049	-670.69415	202.21553	535.15430	-765.44135	251.51588	504.99805	-766.52777	227.14456	206.12961	-658.48920	297.65170	158.82851	-622.37091	306.21790	158.78850	-554.50256	256.03003	164.57837	-590.37823	218.88028	173.46263	-710.54144	153.04662	216.82561	-673.77521	173.49631	158.77028	-794.40399	178.33128	183.42137	-527.98328	304.27728	146.53990	-517.66223	-72.86024	142.95863	-875.94177	-78.87260	141.34157	-882.49115	296.15097	144.68085	
392	7.820	-720.08197	90.62041	1845.88208	-662.66779	-82.89490	1549.89111	-674.62726	273.18945	1542.45471	-573.25342	91.24153	1356.11072	-572.18494	-16.88929	1054.06384	-594.01569	231.16107	1067.13025	-781.60858	75.30428	1056.97815	-641.99786	-83.76487	872.61078	-573.14038	-12.60857	802.75226	-668.91992	-69.62717	759.01520	-697.04700	-43.74257	618.82947	-682.43262	65.76492	575.69763	-706.78064	-39.96916	569.35352	-655.87518	9.22083	519.42712	-753.26794	-49.29337	489.58981	-757.73816	-18.90808	206.42203	-649.42950	-69.24863	160.19133	-607.39886	-77.53230	156.05443	-547.80188	-29.89700	162.80762	-595.90363	24.13712	169.59200	-669.82196	52.66143	161.37025	-714.04565	69.01566	218.67493	-789.54871	41.12215	173.31458	-681.98450	271.46463	877.06543	-577.13538	209.26515	814.60223	-691.23059	261.17853	746.71631	-721.09631	243.25966	644.76788	-682.59851	139.16231	575.19623	-724.05853	240.83849	577.95636	-669.67139	202.31172	535.03296	-764.51123	251.66173	505.09357	-766.46936	227.13916	206.17914	-658.47046	297.63538	158.86113	-622.37421	306.22366	158.77878	-554.49384	256.09048	164.56593	-590.36810	218.83722	173.41505	-710.50635	152.93732	216.77516	-673.79572	173.43440	158.63684	-794.37256	178.26050	183.44283	-527.99719	304.28888	146.53728	-517.64581	-72.85872	142.97072	-875.94000	-78.86045	141.33212	-882.49060	296.13699	144.66425	
393	7.840	-723.24213	90.61479	1845.37085	-665.02692	-83.02068	1549.17700	-676.50616	273.32974	1542.00330	-573.46442	91.35229	1356.32813	-570.03406	-16.62130	1053.80334	-591.69891	231.56970	1066.93335	-779.42206	75.78591	1056.72375	-640.27026	-83.50096	872.41046	-571.77350	-12.25946	802.32642	-667.61407	-69.53284	758.95050	-696.31708	-43.68544	618.89490	-682.05237	65.85132	575.73651	-706.36743	-39.83798	569.34979	-655.53644	9.25072	519.37384	-753.03949	-49.13209	489.75742	-757.82031	-18.87912	206.48874	-649.47498	-69.32370	160.14801	-607.41010	-77.52718	156.05907	-547.80090	-29.92958	162.81464	-595.90753	24.13021	169.59875	-669.81921	52.64034	161.37682	-714.04834	69.00655	218.65433	-789.44788	41.12244	173.29408	-679.87671	271.92404	876.85760	-575.30304	209.41165	814.19171	-689.51807	261.45093	746.53082	-719.75977	243.50195	644.74634	-681.73010	139.30165	575.16656	-722.95801	241.05421	577.90491	-668.70667	202.42700	534.92230	-763.62769	251.83032	505.17841	-766.41028	227.15282	206.20941	-658.45520	297.62549	158.88335	-622.38007	306.22873	158.77301	-554.48517	256.14001	164.55615	-590.36139	218.80133	173.36720	-710.49054	152.85431	216.72597	-673.79559	173.37038	158.51189	-794.35498	178.21147	183.47008	-528.00995	304.29861	146.53819	-517.63623	-72.86716	142.98454	-875.93567	-78.83760	141.32831	-882.49048	296.12448	144.65034	
